<?xml version="1.0" encoding="UTF-8" standalone="no"?>
<svg
   xmlns:dc="http://purl.org/dc/elements/1.1/"
   xmlns:cc="http://creativecommons.org/ns#"
   xmlns:rdf="http://www.w3.org/1999/02/22-rdf-syntax-ns#"
   xmlns:svg="http://www.w3.org/2000/svg"
   xmlns="http://www.w3.org/2000/svg"
   xml:space="preserve"
   style="enable-background:new 0 0 486.392 486.392;"
   viewBox="0 0 486.392 486.392"
   y="0px"
   x="0px"
   id="Capa_1"
   version="1.1"><metadata
   id="metadata79"><rdf:RDF><cc:Work
       rdf:about=""><dc:format>image/svg+xml</dc:format><dc:type
         rdf:resource="http://purl.org/dc/dcmitype/StillImage" /><dc:title></dc:title></cc:Work></rdf:RDF></metadata><defs
   id="defs77" />
<g
   style="fill:#ff0000"
   id="g3">
	<g
   style="fill:#ff0000"
   id="g5">
		<g
   style="fill:#ff0000"
   id="g7">
			<path
   id="path9"
   d="M243.196,0C108.891,0,0,108.891,0,243.196s108.891,243.196,243.196,243.196     s243.196-108.891,243.196-243.196C486.392,108.861,377.501,0,243.196,0z M175.344,406.836c-53.837,0-99.254-21.918-99.254-56.938     c0-35.537,41.434-69.858,95.272-69.828l16.811-0.152c-7.357-7.144-13.193-15.929-13.193-26.782     c0-6.445,2.067-12.616,4.925-18.118l-8.968,0.304c-44.231,0-73.84-31.463-73.84-70.466c0-38.151,40.887-71.074,84.359-71.074     h96.974l-21.766,15.686h-30.734c20.398,7.843,31.251,31.615,31.251,55.996c0,20.459-11.339,38.091-27.36,50.615     c-15.656,12.251-18.604,17.358-18.604,27.755c0,8.877,16.781,23.955,25.536,30.187c25.627,18.118,33.865,34.929,33.865,62.988     C270.616,372.029,236.721,406.836,175.344,406.836z M364.794,213.374v60.708h-30.369v-60.708h-60.829v-30.977h60.829v-60.799     h30.369v60.799h60.799v30.977H364.794z"
   style="fill:#ff0000" />
			<path
   id="path11"
   d="M205.774,293.021c-7.357-2.371-15.473-3.8-24.137-3.891     c-37.209-0.395-70.527,22.678-70.527,50.433c0,28.332,26.873,51.861,64.082,51.861c52.317,0,70.527-22.131,70.527-50.402     c0-3.405-0.426-6.749-1.186-10.001C240.46,314.969,225.959,307.035,205.774,293.021z"
   style="fill:#ff0000" />
			<path
   id="path13"
   d="M222.342,167.349c-4.317-32.771-28.059-59.097-53.017-59.857     c-24.958-0.73-41.708,24.35-37.391,57.181c4.317,32.801,28.059,60.009,53.047,60.738     C209.908,226.172,226.689,200.181,222.342,167.349z"
   style="fill:#ff0000" />
		</g>
	</g>
	<g
   style="fill:#ff0000"
   id="g15">
	</g>
	<g
   style="fill:#ff0000"
   id="g17">
	</g>
	<g
   style="fill:#ff0000"
   id="g19">
	</g>
	<g
   style="fill:#ff0000"
   id="g21">
	</g>
	<g
   style="fill:#ff0000"
   id="g23">
	</g>
	<g
   style="fill:#ff0000"
   id="g25">
	</g>
	<g
   style="fill:#ff0000"
   id="g27">
	</g>
	<g
   style="fill:#ff0000"
   id="g29">
	</g>
	<g
   style="fill:#ff0000"
   id="g31">
	</g>
	<g
   style="fill:#ff0000"
   id="g33">
	</g>
	<g
   style="fill:#ff0000"
   id="g35">
	</g>
	<g
   style="fill:#ff0000"
   id="g37">
	</g>
	<g
   style="fill:#ff0000"
   id="g39">
	</g>
	<g
   style="fill:#ff0000"
   id="g41">
	</g>
	<g
   style="fill:#ff0000"
   id="g43">
	</g>
</g>
<g
   id="g45">
</g>
<g
   id="g47">
</g>
<g
   id="g49">
</g>
<g
   id="g51">
</g>
<g
   id="g53">
</g>
<g
   id="g55">
</g>
<g
   id="g57">
</g>
<g
   id="g59">
</g>
<g
   id="g61">
</g>
<g
   id="g63">
</g>
<g
   id="g65">
</g>
<g
   id="g67">
</g>
<g
   id="g69">
</g>
<g
   id="g71">
</g>
<g
   id="g73">
</g>
</svg>